####
#
# OBJ File Generated by Meshlab
#
####
# Object bonfire.obj
#
# Vertices: 162
# Faces: 237
#
####
mtllib ./bonfire.obj.mtl

vn 0.687255 0.543376 0.482103
v -0.225025 0.877509 -0.015999
vn 0.687255 0.543376 0.482103
v 0.073152 -0.500000 1.111523
vn 0.687255 0.543376 0.482103
v 0.864097 -0.500000 -0.015999
vn -0.260465 0.577147 0.773989
v -1.206623 -0.500000 0.680849
vn -0.814386 0.580323 0.000000
v -1.206623 -0.500000 -0.712845
vn -0.260466 0.577146 -0.773989
v 0.073152 -0.500000 -1.143520
vn -0.152901 -0.896737 -0.415313
v 0.903059 -0.744304 -0.255985
vn 0.832352 -0.039507 0.552837
v 1.083785 -0.509600 0.027365
vn -0.116937 -0.682616 0.721361
v 0.925630 -0.641196 0.046358
vn 0.491310 0.869885 0.043754
v 0.395395 -0.241446 1.205425
vn 0.624399 0.009875 -0.781043
v 0.432343 -0.377725 1.061964
vn -0.776438 -0.088663 -0.623925
v -1.155773 -0.365210 1.028743
vn -0.938492 0.009096 0.345182
v -0.109187 -0.387395 -1.552391
vn -0.024039 -0.012297 -0.999635
v 0.083448 -0.456888 -1.840555
vn -0.479992 -0.815600 -0.323117
v 0.008296 -0.576635 -1.730878
vn -0.209845 -0.213653 0.954106
v 0.600732 -0.440205 1.203457
vn -0.265271 0.635434 0.725158
v 0.442706 0.613234 0.565045
vn -0.913113 0.333170 -0.234993
v 0.334755 0.633172 0.404328
vn 0.393294 -0.796497 -0.459252
v 0.829596 -0.571169 0.824591
vn -0.668582 -0.742630 0.038710
v 0.525290 -0.538132 1.006416
vn 0.867237 -0.169760 0.468062
v 0.910095 -0.428456 1.028622
vn -0.039257 0.521991 -0.852047
v 0.561010 0.752160 0.193720
vn 0.682711 0.727890 -0.063883
v 0.676307 0.756696 0.334254
vn 0.735042 -0.169065 -0.656606
v 1.057992 -0.573164 -0.282989
vn -0.700881 0.564213 -0.436383
v -0.023815 1.008193 -0.240196
vn 0.257508 0.457478 -0.851119
v 0.109378 0.931160 -0.250803
vn -0.596715 0.560702 0.574059
v 0.045533 1.014734 -0.030915
vn 0.490360 0.833325 0.255181
v 0.221892 1.025554 -0.062451
vn -0.530043 0.842829 -0.093237
v -1.103681 -0.254047 1.095778
vn 0.542410 -0.011939 0.840029
v 0.415639 -0.447218 1.408184
vn 0.580608 -0.813761 0.026219
v 0.423569 -0.566965 1.275467
vn -0.610180 -0.758088 0.230180
v -1.066943 -0.529013 1.241758
vn -0.344266 0.143899 0.927779
v -0.994130 -0.424904 1.320970
vn 0.145474 0.870906 -0.469424
v 1.382317 -0.148949 -0.554063
vn -0.769645 -0.084148 0.632903
v 0.976665 -0.272714 0.553566
vn -0.207428 0.842788 0.496671
v 1.052739 -0.161552 0.515885
vn -0.638658 0.009096 -0.769437
v 1.249103 -0.285229 -0.618871
vn 0.934273 -0.012296 -0.356346
v 1.585041 -0.354722 -0.533477
vn 0.144359 -0.815600 -0.560318
v 1.456569 -0.474469 -0.567707
vn 0.099573 -0.754966 0.648160
v 1.203114 -0.436516 0.508988
vn 0.832227 0.146200 0.534813
v 1.295251 -0.332407 0.453430
vn -0.393938 0.870906 -0.293828
v -0.003628 -0.251115 -1.656331
vn 0.339691 -0.084146 0.936765
v 0.905060 -0.374880 -0.904212
vn 0.398943 0.842788 0.361322
v 0.894934 -0.263718 -0.988501
vn 0.644218 -0.754968 0.122501
v 0.938628 -0.538683 -1.132553
vn 0.781940 0.146199 -0.605967
v 0.917013 -0.434573 -1.237952
vn -0.385426 0.868924 0.310513
v -1.252544 -0.232754 -0.804682
vn 0.990587 -0.074718 -0.114691
v -0.472805 -0.347991 -1.322888
vn 0.451819 0.848032 -0.276952
v -0.557649 -0.236992 -1.329584
vn 0.120597 0.000235 0.992702
v -1.172463 -0.369859 -0.680958
vn -0.976342 -0.014193 -0.215764
v -1.414098 -0.437916 -0.929868
vn -0.423628 -0.823248 0.377892
v -1.322129 -0.558220 -0.834555
vn 0.277465 -0.748331 -0.602506
v -0.688747 -0.511687 -1.404561
vn -0.387156 0.163486 -0.907404
v -0.796609 -0.407857 -1.404466
vn 0.157311 0.852869 0.497863
v -1.460204 -0.232754 0.496085
vn 0.290004 -0.087267 -0.953038
v -1.654085 -0.347991 -0.631158
vn -0.064784 0.849330 -0.523871
v -1.692076 -0.236992 -0.555000
vn 0.949527 -0.043915 0.310595
v -1.315490 -0.369859 0.468183
vn -0.640190 0.005712 0.768196
v -1.715259 -0.461351 0.601035
vn 0.099085 -0.843642 0.527684
v -1.592434 -0.581655 0.551467
vn -0.411268 -0.757032 -0.507702
v -1.810703 -0.511688 -0.461536
vn -0.978001 0.203822 -0.044395
v -1.851022 -0.407858 -0.361492
vn -0.899071 -0.207380 0.385570
v -1.287831 -0.460876 -0.099930
vn 0.650229 0.389696 0.652181
v -0.532635 0.612817 0.095004
vn -0.459024 0.560651 0.689179
v -0.713916 0.600192 0.088563
vn 0.150151 -0.734579 0.661701
v -1.069793 -0.577660 -0.014507
vn -0.577612 -0.319827 -0.751050
v -1.230441 -0.501390 -0.480005
vn 0.440734 -0.756582 -0.483049
v -1.025038 -0.574575 -0.399009
vn 0.673978 0.601442 -0.428977
v -0.516994 0.668020 -0.219207
vn -0.432379 0.703439 -0.564112
v -0.706177 0.628644 -0.242447
vn -0.061499 0.477203 0.876638
v 0.108594 1.368582 0.302287
vn -0.655022 0.748332 0.104622
v -0.007596 1.466487 0.217741
vn 0.328159 -0.244543 0.912420
v 0.597733 -0.578616 0.589226
vn -0.456723 -0.836971 0.301469
v 0.443105 -0.757899 0.477764
vn 0.051900 -0.701089 -0.711183
v 0.597928 -0.699146 0.190203
vn 0.959485 -0.223290 -0.171843
v 0.756251 -0.564844 0.295101
vn -0.153073 0.570810 -0.806687
v 0.126734 1.416479 0.058186
vn 0.696982 0.716034 0.038869
v 0.282299 1.414144 0.187979
vn -0.759997 -0.260507 -0.595433
v -0.456897 -0.503566 -1.410321
vn -0.355834 0.634885 0.685787
v -0.255362 1.171800 -0.321057
vn -0.916903 0.371881 -0.144888
v -0.283136 1.052738 -0.444694
vn -0.386595 -0.844798 0.369947
v -0.396261 -0.645378 -1.198925
vn 0.408190 -0.141752 -0.901825
v -0.020675 -0.438857 -1.559960
vn 0.756092 -0.650665 0.070418
v 0.029200 -0.536814 -1.354963
vn 0.529372 0.676361 0.512153
v -0.073827 1.177835 -0.408796
vn 0.222162 0.791275 -0.569674
v -0.103161 1.143970 -0.606393
vn 0.171476 -0.150793 -0.973580
v 0.512282 -0.550357 -1.218491
vn -0.751687 0.654153 0.083974
v -0.227549 1.682892 -0.354424
vn -0.229550 0.522359 -0.821248
v -0.123841 1.594878 -0.462736
vn -0.472590 -0.834132 -0.284398
v 0.375332 -0.741422 -1.103536
vn 0.984821 -0.168215 -0.042801
v 0.774138 -0.519681 -0.922435
vn 0.236293 -0.753153 0.613943
v 0.632440 -0.665424 -0.809352
vn -0.056670 0.531505 0.845157
v -0.008082 1.661700 -0.193551
vn 0.644811 0.761968 -0.060194
v 0.127963 1.673557 -0.343228
vn 0.147282 -0.225219 0.963112
v -0.566109 -0.460876 1.169674
vn 0.828470 0.310660 -0.465970
v -0.114850 1.216785 0.242754
vn 0.515126 0.604531 0.607608
v -0.163432 1.228000 0.365412
vn 0.687395 -0.725879 0.024244
v -0.432146 -0.571164 0.977602
vn -0.874951 -0.322780 0.360935
v -0.987340 -0.501390 0.975274
vn -0.350959 -0.752147 -0.557766
v -0.860632 -0.574575 0.794456
vn -0.181991 0.606651 -0.773857
v -0.391363 1.301389 0.148781
vn -0.654892 0.727249 0.205490
v -0.458124 1.285854 0.275203
vn 0.519701 -0.035036 0.853630
v 0.228966 -0.460303 1.185981
vn 0.040469 0.735504 -0.676310
v -0.133243 2.310169 -0.575028
vn 0.529812 0.803523 0.271387
v -0.114642 2.309615 -0.523334
vn 0.546899 -0.836690 0.029170
v 0.188325 -0.562387 1.077357
vn -0.658071 -0.165471 0.734549
v 0.067670 -0.520319 1.076598
vn -0.541607 -0.812086 -0.217207
v 0.032085 -0.589511 1.006998
vn -0.333146 0.041210 -0.941974
v -0.150598 2.281390 -0.573472
vn -0.835264 0.549340 0.023671
v -0.168907 2.293032 -0.539804
vn 0.173501 -0.852230 0.493559
v -1.511450 -0.638847 0.007520
vn 0.949094 0.067828 -0.307604
v 0.317229 2.431566 0.165874
vn 0.679611 -0.178515 0.711520
v 0.299626 2.352643 0.245109
vn 0.288984 -0.659652 -0.693792
v -1.544570 -0.544202 -0.193973
vn -0.801958 -0.353908 0.481261
v -1.696260 -0.524100 -0.063739
vn -0.787446 -0.201547 -0.582502
v -1.752963 -0.487842 -0.249819
vn 0.290561 0.903604 -0.314760
v 0.289667 2.514139 0.148017
vn -0.513198 0.690684 0.509494
v 0.218062 2.456933 0.209904
vn 0.199150 -0.970583 0.135307
v -0.877865 -0.618085 -0.829500
vn 0.722677 0.468033 -0.508608
v 0.199363 2.920805 0.183285
vn 0.863044 -0.092332 0.496618
v 0.242041 2.776820 0.298136
vn 0.224581 -0.438447 -0.870246
v -0.879674 -0.461275 -1.048156
vn -0.765377 -0.411894 0.494512
v -1.104566 -0.408735 -0.745539
vn -0.802373 -0.008321 -0.596765
v -1.104317 -0.316716 -0.963126
vn -0.123512 0.990159 -0.065803
v 0.143982 2.987813 0.208796
vn -0.321948 0.329771 0.887468
v 0.126667 2.845963 0.329082
vn -0.903960 -0.411443 0.116498
v -1.563704 -0.497366 0.603446
vn 0.348176 0.219043 0.911479
v 0.412747 4.058558 -0.325296
vn -0.344851 0.929199 0.132918
v 0.368024 4.183444 -0.364992
vn -0.087549 -0.379244 0.921145
v -1.351459 -0.462986 0.765226
vn -0.144390 -0.708423 -0.690860
v -1.326478 -0.540499 0.393365
vn 0.730981 -0.674001 0.106721
v -1.112433 -0.502043 0.554240
vn 0.991053 -0.018173 0.132227
v 0.481497 4.058078 -0.384297
vn 0.445171 0.560165 -0.698597
v 0.463302 4.137787 -0.453802
vn 0.094749 -0.157058 -0.983034
v 0.830242 -0.484100 -0.932139
vn -0.712585 0.688529 0.134723
v 0.291061 0.621428 -0.279367
vn -0.738050 0.224291 -0.636377
v 0.347001 0.495332 -0.385216
vn -0.652485 -0.721232 -0.232569
v 0.652722 -0.608142 -0.785249
vn 0.938301 -0.312734 -0.147608
v 1.191417 -0.544543 -0.644447
vn 0.208350 -0.778982 0.591420
v 1.024033 -0.624611 -0.504166
vn 0.034524 0.628721 0.776864
v 0.609885 0.601156 -0.118162
vn 0.652994 0.738102 -0.169718
v 0.723976 0.554597 -0.278996
vn 0.197085 -0.472182 0.859187
v 1.214571 -0.440886 0.952589
vn 0.624988 0.758613 -0.184110
v -0.088267 3.567605 -0.575917
vn -0.016266 0.657015 0.753702
v -0.133863 3.526501 -0.397100
vn 0.954173 -0.297854 0.028941
v 1.363782 -0.374244 0.738819
vn -0.621930 -0.775338 0.109788
v 0.996971 -0.474406 0.720648
vn 0.138889 -0.602569 -0.785888
v 1.144931 -0.403600 0.505545
vn -0.241033 0.546262 -0.802185
v -0.150233 3.569952 -0.641967
vn -0.989040 0.145653 0.024168
v -0.223841 3.484609 -0.493010
vn 0.529779 -0.366625 -0.764801
v 0.524598 2.295954 -0.211391
vn 0.839787 -0.164383 0.517432
v 0.420825 2.077699 -0.058316
vn 0.408384 -0.535023 -0.739576
v 0.404193 2.072245 -0.117414
vn -0.844096 -0.004426 -0.536173
v 0.490653 2.308509 -0.202997
vn -0.085343 0.900911 -0.425531
v 0.483402 2.610600 -0.333508
vn -0.796008 0.345279 -0.497146
v 0.347066 2.117801 -0.105542
vn -0.309671 0.474844 0.823788
v 0.501298 2.312000 -0.165174
vn 0.905637 -0.092752 0.413786
v 0.535242 2.299445 -0.173568
vn -0.201600 0.616444 0.761154
v 0.363697 2.123255 -0.046443
vn 0.159322 0.241943 -0.957121
v 0.516565 2.322136 -0.197005
vn 0.473327 0.858681 0.196539
v 0.608411 2.481690 -0.141384
vn -0.765204 0.585191 -0.268356
v 0.504258 2.323859 -0.188571
# 162 vertices, 0 vertices normals


usemtl material_0
vt 0.237874 0.251228
vt 0.308749 0.005129
vt 0.496751 0.251228
f 1/1/1 2/2/2 3/3/3
vt 0.004555 0.099131
f 1/1/1 4/4/4 2/2/2
vt 0.004555 0.403325
f 1/1/1 5/5/5 4/4/4
vt 0.308749 0.497326
f 1/1/1 6/6/6 5/5/5
f 1/1/1 3/3/3 6/6/6
vt 0.998458 0.814274
vt 0.763332 0.737083
vt 0.764190 0.811515
f 7/7/7 8/8/8 9/9/9
vt 0.995760 0.019390
vt 0.756082 0.020880
vt 0.757307 0.359961
f 10/10/10 11/11/11 12/12/12
f 13/7/13 14/8/14 15/9/15
vt 0.995603 0.095379
vt 0.936135 0.688802
vt 0.816291 0.688263
f 16/13/16 17/14/17 18/15/18
f 19/7/19 16/8/16 20/9/20
vt 0.999578 0.738925
f 19/7/19 21/16/21 16/8/16
vt 0.936361 0.692521
vt 0.756013 0.088156
vt 0.815616 0.693642
f 22/17/22 20/18/20 18/19/18
vt 0.996706 0.088301
f 22/17/22 19/20/19 20/18/20
vt 0.947457 0.569094
vt 0.811563 0.709384
vt 0.815386 0.558610
f 23/21/23 18/22/18 17/23/17
vt 0.947076 0.710056
f 23/21/23 22/24/22 18/22/18
vt 0.997242 0.089544
vt 0.815706 0.694163
vt 0.755739 0.089472
f 21/25/21 17/26/17 16/27/16
vt 0.937015 0.692955
f 21/25/21 23/28/23 17/26/17
vt 0.995760 0.094788
vt 0.821853 0.733449
vt 0.930713 0.736524
f 24/29/24 25/30/25 26/31/26
vt 0.756082 0.096279
f 24/29/24 7/32/7 25/30/25
f 7/7/7 24/16/24 8/8/8
vt 0.930906 0.738111
vt 0.821111 0.739232
f 25/33/25 9/18/9 27/34/27
f 25/33/25 7/20/7 9/18/9
vt 1.006493 0.747948
vt 0.751013 0.805825
vt 0.758200 0.737463
f 26/35/26 27/36/27 28/37/28
vt 1.005777 0.806496
f 26/35/26 25/38/25 27/36/27
vt 0.821193 0.739753
f 24/25/24 28/39/28 8/27/8
vt 0.931501 0.738546
f 24/25/24 26/40/26 28/39/28
vt 0.821725 0.733853
vt 0.756838 0.095674
f 8/13/8 27/41/27 9/42/9
vt 0.930701 0.734392
f 8/13/8 28/43/28 27/41/27
vt 0.995425 0.363036
f 10/10/10 12/12/12 29/44/29
f 11/7/11 30/8/30 31/9/31
f 11/7/11 10/16/10 30/8/30
vt 0.995847 0.364623
vt 0.756013 0.012756
vt 0.755685 0.365744
f 12/45/12 31/46/31 32/47/32
vt 0.996706 0.012902
f 12/45/12 11/48/11 31/46/31
f 29/35/29 32/36/32 33/37/33
f 29/35/29 12/38/12 32/36/32
vt 0.997242 0.014145
vt 0.755864 0.366265
vt 0.755739 0.014073
f 10/49/10 33/50/33 30/51/30
vt 0.997148 0.365057
f 10/49/10 29/52/29 33/50/33
vt 0.995603 0.019981
vt 0.757028 0.360365
vt 0.756838 0.020275
f 30/53/30 32/54/32 31/55/31
vt 0.995399 0.360904
f 30/53/30 33/56/33 32/54/32
vt 0.995760 0.010622
vt 0.757307 0.381003
vt 0.995425 0.384078
f 34/57/34 35/58/35 36/59/36
vt 0.756082 0.012112
f 34/57/34 37/60/37 35/58/35
f 37/7/37 38/8/38 39/9/39
f 37/7/37 34/16/34 38/8/38
vt 0.995847 0.385665
vt 0.756013 0.003989
vt 0.755685 0.386785
f 35/61/35 39/62/39 40/63/40
vt 0.996706 0.004134
f 35/61/35 37/64/37 39/62/39
f 36/35/36 40/36/40 41/37/41
f 36/35/36 35/38/35 40/36/40
vt 0.997242 0.005378
vt 0.755864 0.387307
vt 0.755739 0.005306
f 34/65/34 41/66/41 38/67/38
vt 0.997148 0.386099
f 34/65/34 36/68/36 41/66/41
vt 0.995603 0.011213
vt 0.757028 0.381407
vt 0.756838 0.011508
f 38/69/38 40/70/40 39/71/39
vt 0.995399 0.381946
f 38/69/38 41/72/41 40/70/40
vt 0.995760 0.050952
vt 0.757307 0.370482
vt 0.995425 0.373557
f 42/73/42 43/74/43 44/75/44
vt 0.756082 0.052442
f 42/73/42 13/76/13 43/74/43
f 13/7/13 42/16/42 14/8/14
vt 0.995847 0.375144
vt 0.756013 0.044318
vt 0.755685 0.376265
f 43/77/43 15/78/15 45/79/45
vt 0.996706 0.044464
f 43/77/43 13/80/13 15/78/15
f 44/35/44 45/36/45 46/37/46
f 44/35/44 43/38/43 45/36/45
vt 0.997242 0.045707
vt 0.755864 0.376786
vt 0.755739 0.045635
f 42/81/42 46/82/46 14/83/14
vt 0.997148 0.375578
f 42/81/42 44/84/44 46/82/46
vt 0.995603 0.051543
vt 0.757028 0.370886
vt 0.756838 0.051838
f 14/85/14 45/86/45 15/87/15
vt 0.995399 0.371425
f 14/85/14 46/88/46 45/86/45
f 47/73/47 48/74/48 49/75/49
f 47/73/47 50/76/50 48/74/48
f 50/7/50 51/8/51 52/9/52
f 50/7/50 47/16/47 51/8/51
f 48/77/48 52/78/52 53/79/53
f 48/77/48 50/80/50 52/78/52
f 49/35/49 53/36/53 54/37/54
f 49/35/49 48/38/48 53/36/53
f 47/81/47 54/82/54 51/83/51
f 47/81/47 49/84/49 54/82/54
f 51/85/51 53/86/53 52/87/52
f 51/85/51 54/88/54 53/86/53
vt 0.757307 0.379249
vt 0.995425 0.382324
f 55/10/55 56/89/56 57/90/57
f 55/10/55 58/11/58 56/89/56
f 58/7/58 59/8/59 60/9/60
f 58/7/58 55/16/55 59/8/59
vt 0.995847 0.383911
vt 0.755685 0.385032
f 56/91/56 60/46/60 61/92/61
f 56/91/56 58/48/58 60/46/60
f 57/35/57 61/36/61 62/37/62
f 57/35/57 56/38/56 61/36/61
vt 0.755864 0.385554
f 55/49/55 62/93/62 59/51/59
vt 0.997148 0.384346
f 55/49/55 57/94/57 62/93/62
vt 0.757028 0.379653
f 59/53/59 61/95/61 60/55/60
vt 0.995399 0.380192
f 59/53/59 62/96/62 61/95/61
vt 0.757307 0.733449
vt 0.995425 0.736524
f 63/29/63 64/97/64 65/98/65
f 63/29/63 66/32/66 64/97/64
f 66/7/66 67/8/67 68/9/68
f 66/7/66 63/16/63 67/8/67
vt 0.995847 0.738111
vt 0.755685 0.739232
f 64/99/64 68/18/68 69/100/69
f 64/99/64 66/20/66 68/18/68
f 65/35/65 69/36/69 70/37/70
f 65/35/65 64/38/64 69/36/69
vt 0.755864 0.739753
f 63/25/63 70/101/70 67/27/67
vt 0.997148 0.738546
f 63/25/63 65/102/65 70/101/70
vt 0.757028 0.733853
f 67/13/67 69/103/69 68/42/68
vt 0.995399 0.734392
f 67/13/67 70/104/70 69/103/69
vt 0.944916 0.736524
vt 0.807687 0.733449
f 71/105/71 72/106/72 73/29/73
f 72/106/72 74/32/74 73/29/73
f 75/9/75 76/8/76 74/7/74
f 76/8/76 73/16/73 74/7/74
vt 0.806752 0.739232
vt 0.945159 0.738111
f 77/107/77 75/18/75 72/108/72
f 75/18/75 74/20/74 72/108/72
f 78/37/78 77/36/77 71/35/71
f 77/36/77 72/38/72 71/35/71
vt 0.806855 0.739753
f 76/27/76 78/109/78 73/25/73
vt 0.945909 0.738546
f 78/109/78 71/110/71 73/25/73
vt 0.807526 0.733853
f 75/42/75 77/111/77 76/13/76
vt 0.944901 0.734392
f 77/111/77 78/112/78 76/13/76
vt 0.756701 0.094788
vt 0.930608 0.733449
vt 0.821747 0.736524
f 79/113/79 80/114/80 81/115/81
vt 0.996379 0.096279
f 79/113/79 82/116/82 80/114/80
f 82/7/82 83/8/83 84/9/84
f 82/7/82 79/16/79 83/8/83
vt 0.821554 0.738111
vt 0.996447 0.088156
vt 0.931350 0.739232
f 80/117/80 84/118/84 85/119/85
vt 0.755755 0.088301
f 80/117/80 82/120/82 84/118/84
f 81/35/81 85/36/85 86/37/86
f 81/35/81 80/38/80 85/36/85
vt 0.755219 0.089544
vt 0.931268 0.739753
vt 0.996721 0.089472
f 79/121/79 86/122/86 83/123/83
vt 0.820960 0.738546
f 79/121/79 81/124/81 86/122/86
vt 0.756858 0.095379
vt 0.930736 0.733853
vt 0.995623 0.095674
f 83/125/83 85/126/85 84/127/84
vt 0.821760 0.734392
f 83/125/83 86/128/86 85/126/85
f 87/29/87 88/30/88 89/31/89
f 87/29/87 90/32/90 88/30/88
f 90/7/90 91/8/91 92/9/92
f 90/7/90 87/16/87 91/8/91
f 88/33/88 92/18/92 93/34/93
f 88/33/88 90/20/90 92/18/92
f 89/35/89 93/36/93 94/37/94
f 89/35/89 88/38/88 93/36/93
f 87/25/87 94/39/94 91/27/91
f 87/25/87 89/40/89 94/39/94
f 91/13/91 93/41/93 92/42/92
f 91/13/91 94/43/94 93/41/93
vt 0.808997 0.715915
vt 0.943602 0.718989
f 95/29/95 96/129/96 97/130/97
f 95/29/95 98/32/98 96/129/96
f 98/7/98 99/8/99 100/9/100
f 98/7/98 95/16/95 99/8/99
vt 0.943841 0.720577
vt 0.808080 0.721697
f 96/131/96 100/18/100 101/132/101
f 96/131/96 98/20/98 100/18/100
f 97/35/97 101/36/101 102/37/102
f 97/35/97 96/38/96 101/36/101
vt 0.808181 0.722219
f 95/25/95 102/133/102 99/27/99
vt 0.944576 0.721011
f 95/25/95 97/134/97 102/133/102
vt 0.808839 0.716318
f 99/13/99 101/135/101 100/42/100
vt 0.943587 0.716858
f 99/13/99 102/136/102 101/135/101
vt 0.997242 0.086547
vt 0.758021 0.738111
vt 0.997124 0.737688
f 103/137/103 104/138/104 105/139/105
vt 0.758456 0.086330
f 103/137/103 106/140/106 104/138/104
vt 0.983225 0.806251
vt 0.763879 0.740869
vt 0.763029 0.807136
f 106/141/106 107/142/107 108/143/108
vt 0.983885 0.740590
f 106/141/106 103/144/103 107/142/107
vt 0.995917 0.735937
vt 0.759525 0.095736
vt 0.758124 0.734604
f 104/145/104 108/146/108 109/147/109
vt 0.994906 0.092233
f 104/145/104 106/148/106 108/146/108
vt 0.986644 0.737213
vt 0.759876 0.808250
vt 0.755685 0.744011
f 105/149/105 109/150/109 110/151/110
vt 0.986572 0.808019
f 105/149/105 104/152/104 109/150/109
vt 0.995566 0.094311
vt 0.758605 0.736835
vt 0.759207 0.093561
f 103/153/103 110/154/110 107/155/107
vt 0.995989 0.737333
f 103/153/103 105/156/105 110/154/110
vt 0.997242 0.093561
vt 0.755685 0.746879
vt 0.755859 0.093983
f 107/157/107 109/158/109 108/159/108
vt 0.997024 0.745603
f 107/157/107 110/160/110 109/158/109
vt 0.757069 0.086547
vt 0.956966 0.795624
vt 0.796849 0.795202
f 111/161/111 112/162/112 113/163/113
vt 0.995855 0.086330
f 111/161/111 114/164/114 112/162/112
f 114/141/114 115/142/115 116/143/116
f 114/141/114 111/144/111 115/142/115
vt 0.797657 0.793450
vt 0.994786 0.095736
vt 0.956898 0.792117
f 112/165/112 116/166/116 117/167/117
vt 0.759405 0.092233
f 112/165/112 114/168/114 116/166/116
f 113/149/113 117/150/117 118/151/118
f 113/149/113 112/152/112 117/150/117
vt 0.758746 0.094311
vt 0.956575 0.794350
vt 0.995105 0.093561
f 111/169/111 118/170/118 115/171/115
vt 0.797610 0.794847
f 111/169/111 113/172/113 118/170/118
vt 0.757069 0.093561
vt 0.958531 0.804392
vt 0.998452 0.093983
f 115/173/115 117/174/117 116/175/116
vt 0.796916 0.803117
f 115/173/115 118/176/118 117/174/117
vt 0.795387 0.860853
vt 0.959437 0.860431
f 119/137/119 120/177/120 121/178/121
f 119/137/119 122/140/122 120/177/120
f 122/141/122 123/142/123 124/143/124
f 122/141/122 119/144/119 123/142/123
vt 0.958609 0.858679
vt 0.795457 0.857346
f 120/179/120 124/146/124 125/180/125
f 120/179/120 122/148/122 124/146/124
f 121/149/121 125/150/125 126/151/126
f 121/149/121 120/152/120 125/150/125
vt 0.795788 0.859578
f 119/153/119 126/181/126 123/155/123
vt 0.958658 0.860076
f 119/153/119 121/182/121 126/181/126
vt 0.793784 0.869621
f 123/157/123 125/183/125 124/159/124
vt 0.959368 0.868346
f 123/157/123 126/184/126 125/183/125
vt 0.758021 0.923978
vt 0.997124 0.923556
f 127/137/127 128/185/128 129/186/129
f 127/137/127 130/140/130 128/185/128
f 130/141/130 131/142/131 132/143/132
f 130/141/130 127/144/127 131/142/131
vt 0.995917 0.921804
vt 0.758124 0.920471
f 128/187/128 132/146/132 133/188/133
f 128/187/128 130/148/130 132/146/132
f 129/149/129 133/150/133 134/151/134
f 129/149/129 128/152/128 133/150/133
vt 0.758605 0.922703
f 127/153/127 134/189/134 131/155/131
vt 0.995989 0.923201
f 127/153/127 129/190/129 134/189/134
vt 0.755685 0.932745
f 131/157/131 133/191/133 132/159/132
vt 0.997024 0.931470
f 131/157/131 134/192/134 133/191/133
f 135/29/135 136/97/136 137/98/137
f 135/29/135 138/32/138 136/97/136
f 138/7/138 139/8/139 140/9/140
f 138/7/138 135/16/135 139/8/139
f 136/99/136 140/18/140 141/100/141
f 136/99/136 138/20/138 140/18/140
f 137/35/137 141/36/141 142/37/142
f 137/35/137 136/38/136 141/36/141
f 135/25/135 142/101/142 139/27/139
f 135/25/135 137/102/137 142/101/142
f 139/13/139 141/103/141 140/42/140
f 139/13/139 142/104/142 141/103/141
vt 0.758021 0.985349
vt 0.997124 0.984927
f 143/137/143 144/193/144 145/194/145
f 143/137/143 146/140/146 144/193/144
f 146/141/146 147/142/147 148/143/148
f 146/141/146 143/144/143 147/142/147
vt 0.995917 0.983175
vt 0.758124 0.981843
f 144/195/144 148/146/148 149/196/149
f 144/195/144 146/148/146 148/146/148
f 145/149/145 149/150/149 150/151/150
f 145/149/145 144/152/144 149/150/149
vt 0.758605 0.984074
f 143/153/143 150/197/150 147/155/147
vt 0.995989 0.984572
f 143/153/143 145/198/145 150/197/150
vt 0.755685 0.994117
f 147/157/147 149/199/149 148/159/148
vt 0.997024 0.992841
f 147/157/147 150/200/150 149/199/149
vt 0.816432 0.687859
vt 0.936148 0.690934
f 21/29/21 22/201/22 23/202/23
f 21/29/21 19/32/19 22/201/22
vt 0.913499 0.613029
vt 0.787637 0.566996
f 151/203/151 152/204/152 153/204/153
vt 0.903535 0.679550
f 154/205/154 151/203/151 153/204/153
vt 0.952854 0.783701
f 154/205/154 155/206/155 151/203/151
vt 0.769702 0.642782
f 154/205/154 153/204/153 156/207/156
f 157/205/157 154/205/154 156/207/156
f 157/205/157 155/206/155 154/205/154
f 158/203/158 155/206/155 157/205/157
f 151/203/151 155/206/155 158/203/158
f 151/203/151 158/203/158 152/204/152
f 157/205/157 156/207/156 159/207/159
vt 0.916929 0.669206
vt 0.976873 0.780589
f 160/208/160 161/209/161 158/203/158
f 158/203/158 159/207/159 152/204/152
f 158/203/158 157/205/157 159/207/159
f 158/203/158 161/209/161 157/205/157
vt 0.911670 0.689894
f 157/205/157 161/209/161 162/210/162
f 162/210/162 161/209/161 160/208/160
f 16/13/16 18/15/18 20/42/20
# 237 faces, 210 coords texture

# End of File
