####
#
# OBJ File Generated by Meshlab
#
####
# Object marble_decoration.obj
#
# Vertices: 125
# Faces: 240
#
####
mtllib ./marble_decoration.obj.mtl

vn 0.261473 -0.261473 0.929120
v 0.204313 0.689477 0.210458
vn 0.251720 -0.410198 0.876570
v 0.147506 0.632669 0.210458
vn 0.362065 -0.243041 0.899911
v 0.320626 0.586447 0.120776
vn -0.426474 -0.250231 -0.869197
v -0.259821 0.741719 -0.214647
vn -0.261475 -0.261475 -0.929119
v -0.204353 0.686252 -0.214647
vn -0.362068 -0.243041 -0.899910
v -0.323891 0.586447 -0.124964
vn 0.251721 -0.410198 -0.876570
v 0.147506 0.632669 -0.214647
vn 0.261474 -0.261474 -0.929119
v 0.202361 0.687525 -0.214647
vn 0.362068 -0.243041 -0.899910
v 0.320626 0.586447 -0.124964
vn -0.251721 -0.410198 0.876570
v -0.150771 0.632669 0.210458
vn -0.261474 -0.261474 0.929119
v -0.208534 0.690433 0.210458
vn -0.362065 -0.243041 0.899911
v -0.323891 0.586447 0.120776
vn 0.426474 -0.250230 0.869198
v 0.256556 0.741719 0.210458
vn 0.426475 -0.250230 -0.869197
v 0.256556 0.741719 -0.214647
vn 0.567548 -0.285078 -0.772411
v 0.256556 0.741719 -0.145189
vn 0.440888 -0.524492 -0.728373
v 0.147506 0.632669 -0.172147
vn -0.000001 -0.085889 -0.996305
v -0.001633 0.133942 -0.169313
vn -0.000000 -0.158758 -0.987318
v -0.001633 0.592755 -0.215003
vn -0.251721 -0.410198 -0.876569
v -0.150771 0.632669 -0.214647
vn -0.440888 -0.524491 -0.728372
v -0.150771 0.632669 -0.172147
vn -0.567549 -0.285078 -0.772411
v -0.259821 0.741719 -0.145189
vn 0.567548 -0.285078 0.772411
v 0.256556 0.741719 0.141001
vn 0.440886 -0.524492 0.728373
v 0.147506 0.632669 0.167958
vn -0.000001 -0.085891 0.996305
v -0.001633 0.133942 0.165124
vn -0.000000 -0.158758 0.987318
v -0.001633 0.592755 0.210814
vn -0.440886 -0.524492 0.728373
v -0.150771 0.632669 0.167958
vn -0.426473 -0.250230 0.869198
v -0.259821 0.741719 0.210458
vn -0.567549 -0.285078 0.772411
v -0.259821 0.741719 0.141001
vn -0.510507 0.288904 -0.809888
v -0.259821 1.039649 -0.214647
vn -0.898818 0.438321 0.000000
v -0.288221 1.050053 -0.002094
vn -0.698647 0.715467 0.000000
v -0.315201 1.208230 -0.002094
vn -0.510507 0.288902 0.809888
v -0.259821 1.039649 0.210458
vn -0.408177 -0.544957 0.732403
v -0.498493 0.768127 0.096248
vn -0.985210 -0.171353 0.000001
v -0.756693 0.796695 -0.002094
vn -0.752134 -0.659010 -0.000000
v -0.597225 0.779756 -0.002094
vn -0.408177 -0.544958 -0.732402
v -0.498493 0.768127 -0.100436
vn -0.323526 -0.049069 -0.944946
v -0.299736 0.890684 -0.215003
vn -0.323525 -0.049068 0.944947
v -0.299736 0.890684 0.210814
vn -0.000001 1.000000 0.000001
v -0.001633 1.647427 -0.002094
vn -0.000000 0.321712 -0.946837
v -0.001633 1.188614 -0.215003
vn -0.297434 0.496033 -0.815772
v -0.150771 1.148699 -0.214647
vn -0.483511 0.875338 0.000000
v -0.167176 1.174564 -0.002094
vn -0.297432 0.496034 0.815772
v -0.150771 1.148699 0.210458
vn -0.000000 0.321711 0.946838
v -0.001633 1.188614 0.210814
vn -0.388941 0.388940 0.835135
v -0.209777 1.089693 0.210458
vn -0.388941 0.388942 -0.835134
v -0.212896 1.086573 -0.214647
vn 0.297434 0.496033 -0.815772
v 0.147506 1.148699 -0.214647
vn 0.297431 0.496034 0.815772
v 0.147506 1.148699 0.210458
vn 0.483514 0.875337 0.000000
v 0.163911 1.174565 -0.002094
vn 0.898819 0.438321 0.000000
v 0.284957 1.050053 -0.002094
vn 0.510507 0.288903 -0.809888
v 0.256556 1.039649 -0.214647
vn 0.698648 0.715465 -0.000000
v 0.311937 1.208230 -0.002094
vn 0.510508 0.288899 0.809888
v 0.256556 1.039649 0.210458
vn 0.388940 0.388941 -0.835135
v 0.208606 1.087598 -0.214647
vn 0.388940 0.388940 0.835136
v 0.204785 1.091421 0.210458
vn 0.323526 -0.049066 0.944946
v 0.296470 0.890685 0.210814
vn 0.985210 -0.171351 0.000001
v 0.753427 0.796695 -0.002094
vn 0.323528 -0.049067 -0.944946
v 0.296470 0.890685 -0.215003
vn 0.457884 -0.045931 0.887825
v 0.221188 0.890878 0.223950
vn 0.372981 0.289814 0.881415
v 0.156204 1.060086 0.223950
vn -0.000001 0.505356 0.862911
v -0.001633 1.130175 0.223950
vn -0.372979 0.289813 0.881416
v -0.159469 1.060086 0.223950
vn -0.457886 -0.045932 0.887824
v -0.224452 0.890878 0.223950
vn -0.303833 -0.357456 0.883126
v -0.159470 0.721669 0.223950
vn -0.000000 -0.397786 0.917478
v -0.001633 0.651582 0.223950
vn 0.303832 -0.357458 0.883125
v 0.156204 0.721669 0.223950
vn 0.457882 -0.045931 -0.887826
v 0.221188 0.890878 -0.228139
vn 0.372980 0.289814 -0.881416
v 0.156204 1.060086 -0.228139
vn 0.303830 -0.357456 -0.883126
v 0.156204 0.721669 -0.228139
vn -0.000000 -0.397785 -0.917479
v -0.001633 0.651582 -0.228139
vn -0.303831 -0.357455 -0.883127
v -0.159470 0.721669 -0.228139
vn -0.457884 -0.045932 -0.887825
v -0.224452 0.890878 -0.228139
vn -0.372980 0.289813 -0.881416
v -0.159469 1.060086 -0.228139
vn -0.000001 0.505354 -0.862912
v -0.001633 1.130175 -0.228139
vn 0.408178 -0.544955 -0.732404
v 0.495228 0.768127 -0.100436
vn 0.752136 -0.659008 0.000000
v 0.593960 0.779756 -0.002094
vn 0.408177 -0.544954 0.732405
v 0.495228 0.768127 0.096248
vn 0.464250 -0.151348 -0.872678
v 0.465504 0.594024 -0.093919
vn 0.464250 -0.151348 0.872678
v 0.465504 0.594024 0.089731
vn 0.946664 -0.322223 0.000001
v 0.441818 0.309227 -0.002094
vn 0.355223 -0.213804 -0.910002
v 0.364030 0.438385 -0.106445
vn 0.296285 -0.094396 -0.950423
v 0.212439 0.350264 -0.135488
vn 0.441502 0.070730 -0.894468
v 0.248575 -0.108661 -0.138887
vn 0.999999 0.001514 0.000004
v 0.398385 -0.108661 -0.002094
vn 0.441500 0.070730 0.894469
v 0.248575 -0.108661 0.134697
vn 0.990859 0.134904 0.000003
v 0.440682 -0.504042 -0.002094
vn 0.509345 0.122212 0.851840
v 0.274810 -0.504042 0.175735
vn -0.000000 0.124920 -0.992167
v -0.001633 -0.108661 -0.194931
vn -0.296285 -0.094397 -0.950423
v -0.215703 0.350264 -0.135488
vn -0.441502 0.070731 -0.894468
v -0.251840 -0.108661 -0.138887
vn -0.000000 0.132652 -0.991163
v -0.001633 -0.504042 -0.252781
vn 0.509345 0.122212 -0.851840
v 0.274810 -0.504042 -0.179925
vn -0.509347 0.122214 -0.851839
v -0.278076 -0.504042 -0.179925
vn -0.990859 0.134904 0.000003
v -0.443946 -0.504042 -0.002094
vn -0.441501 0.070730 0.894469
v -0.251840 -0.108661 0.134697
vn -0.509348 0.122214 0.851839
v -0.278076 -0.504042 0.175735
vn -0.999999 0.001513 0.000004
v -0.401650 -0.108661 -0.002094
vn -0.946664 -0.322224 0.000001
v -0.445083 0.309227 -0.002094
vn -0.355224 -0.213805 -0.910002
v -0.367295 0.438384 -0.106445
vn -0.464250 -0.151348 -0.872677
v -0.468768 0.594024 -0.093919
vn -0.464250 -0.151348 0.872677
v -0.468768 0.594024 0.089731
vn -0.355222 -0.213806 0.910003
v -0.367295 0.438384 0.102257
vn -0.296282 -0.094399 0.950424
v -0.215703 0.350264 0.131299
vn -0.000000 0.132654 0.991162
v -0.001633 -0.504042 0.248593
vn -0.000000 0.124921 0.992167
v -0.001633 -0.108661 0.190741
vn 0.296283 -0.094398 0.950424
v 0.212439 0.350264 0.131299
vn 0.355221 -0.213806 0.910003
v 0.364030 0.438385 0.102257
vn -0.000001 -0.647086 -0.762417
v -0.001633 0.721669 -0.314521
vn 0.641436 0.062750 0.764606
v 0.156204 0.890878 0.310333
vn 0.410688 0.477996 0.776438
v 0.110255 1.010527 0.310333
vn -0.000001 -0.647089 0.762415
v -0.001633 0.721669 0.310333
vn -0.505198 -0.384045 0.772842
v -0.113520 0.771230 0.310333
vn 0.505196 -0.384045 0.772843
v 0.110255 0.771230 0.310333
vn -0.000002 0.000001 1.000000
v -0.001633 0.890878 0.370644
vn -0.641437 0.062750 0.764605
v -0.159470 0.890878 0.310333
vn -0.000007 0.572434 0.819951
v -0.001633 1.060086 0.310333
vn -0.410687 0.477995 0.776439
v -0.113520 1.010526 0.310332
vn -0.641436 0.062748 -0.764607
v -0.159470 0.890878 -0.314521
vn -0.410685 0.477993 -0.776441
v -0.113520 1.010526 -0.314521
vn 0.641433 0.062749 -0.764608
v 0.156204 0.890878 -0.314521
vn 0.410686 0.477994 -0.776440
v 0.110255 1.010527 -0.314521
vn -0.000004 0.572432 -0.819952
v -0.001633 1.060086 -0.314521
vn -0.000001 0.000000 -1.000000
v -0.001633 0.890878 -0.374832
vn -0.505196 -0.384043 -0.772844
v -0.113520 0.771230 -0.314521
vn 0.505194 -0.384044 -0.772845
v 0.110255 0.771230 -0.314521
# 125 vertices, 0 vertices normals


usemtl material_0
vt 0.399723 0.556955
vt 0.366801 0.529247
vt 0.453002 0.514532
f 1/1/1 2/2/2 3/3/3
vt 0.422579 0.582059
vt 0.399675 0.556911
vt 0.453944 0.514245
f 4/4/4 5/5/5 6/6/6
vt 0.399694 0.556928
f 7/2/7 8/7/8 9/6/9
vt 0.399737 0.556969
f 10/2/10 11/8/11 12/6/12
f 13/4/13 1/1/1 3/6/3
vt 0.064050 0.675728
vt 0.000082 0.719943
vt 0.064599 0.995615
f 14/9/14 15/10/15 9/11/9
vt 0.422683 0.582128
vt 0.445075 0.648921
vt 0.667125 0.608918
f 7/12/7 16/13/16 17/14/17
f 8/7/8 14/4/14 9/6/9
vt 0.295594 0.512370
vt 0.294784 0.300410
f 18/15/18 7/2/7 17/16/17
vt 0.399710 0.556774
vt 0.366996 0.529268
vt 0.453014 0.514532
f 19/17/19 20/18/20 6/19/6
vt 0.000077 0.719887
vt 0.064033 0.675651
vt 0.064693 0.995251
f 21/20/21 4/21/4 6/22/6
f 20/13/20 19/12/19 17/14/17
f 5/5/5 19/2/19 6/6/6
vt 0.294779 0.300254
f 19/2/19 18/15/18 17/23/17
f 22/10/22 13/9/13 3/11/3
f 23/13/23 2/12/2 24/14/24
f 2/2/2 25/15/25 24/16/24
f 26/18/26 10/17/10 12/19/12
f 27/21/27 28/20/28 12/22/12
f 10/12/10 26/13/26 24/14/24
vt 0.425436 0.720007
vt 0.483962 0.750391
vt 0.448900 0.795597
f 29/24/29 30/25/30 31/26/31
f 30/25/30 32/24/32 31/26/31
vt 0.445079 0.648987
vt 0.422633 0.582081
vt 0.539252 0.595693
f 28/27/28 27/28/27 33/29/33
vt 0.667123 0.608917
vt 0.576636 0.624575
f 34/30/34 35/31/35 33/29/33
f 35/31/35 34/30/34 36/29/36
f 4/28/4 21/27/21 36/29/36
vt 0.539269 0.595695
vt 0.445026 0.649011
f 36/32/36 37/33/37 4/28/4
vt 0.667131 0.608917
f 34/34/34 37/33/37 36/32/36
f 38/33/38 33/32/33 27/4/27
f 38/33/38 34/34/34 33/32/33
f 11/8/11 27/4/27 12/6/12
f 25/15/25 10/2/10 24/23/24
vt 0.295540 0.998011
vt 0.295570 0.790508
vt 0.367906 0.772240
f 39/35/39 40/36/40 41/37/41
vt 0.367875 0.772268
vt 0.415119 0.833481
f 41/38/41 42/39/42 39/35/39
f 42/39/42 43/38/43 39/35/39
f 44/36/44 39/35/39 43/37/43
vt 0.425367 0.719941
vt 0.398124 0.743259
vt 0.449832 0.796642
f 32/40/32 45/41/45 31/42/31
vt 0.416921 0.831803
vt 0.367978 0.772252
vt 0.447020 0.795796
f 42/43/42 41/44/41 31/45/31
f 43/44/43 42/43/42 31/45/31
vt 0.398168 0.743218
f 41/44/41 46/46/46 31/42/31
f 45/41/45 43/44/43 31/42/31
vt 0.295538 0.998396
f 40/36/40 39/47/39 47/37/47
vt 0.367876 0.772268
f 39/47/39 44/36/44 48/48/48
vt 0.415159 0.833482
f 49/49/49 47/48/47 39/35/39
f 48/48/48 49/49/49 39/35/39
vt 0.483964 0.750402
vt 0.425436 0.720008
vt 0.448897 0.795579
f 50/50/50 51/51/51 52/52/52
f 53/51/53 50/50/50 52/52/52
vt 0.398154 0.743231
f 51/40/51 54/53/54 52/42/52
vt 0.398099 0.743281
f 55/54/55 53/40/53 52/42/52
f 48/37/48 55/54/55 52/42/52
vt 0.367977 0.772252
f 54/53/54 47/55/47 52/42/52
vt 0.416908 0.831803
vt 0.447038 0.795796
f 47/55/47 49/56/49 52/57/52
f 49/56/49 48/55/48 52/57/52
vt 0.425485 0.719881
vt 0.667126 0.608919
f 53/58/53 56/33/56 57/59/57
vt 0.490780 0.748058
f 50/60/50 53/58/53 57/59/57
f 51/58/51 50/60/50 57/59/57
f 58/33/58 51/58/51 57/59/57
vt 0.425486 0.719881
f 38/33/38 32/61/32 34/59/34
vt 0.490834 0.748057
f 32/61/32 30/62/30 34/59/34
f 30/62/30 29/61/29 34/59/34
f 29/61/29 37/33/37 34/59/34
vt 0.403517 0.650065
f 56/33/56 59/63/59 13/4/13
f 59/63/59 56/33/56 53/40/53
vt 0.370353 0.728218
f 53/40/53 60/64/60 59/63/59
f 55/54/55 60/64/60 53/40/53
f 48/37/48 60/64/60 55/54/55
vt 0.295620 0.760590
f 61/65/61 44/36/44 43/37/43
f 44/36/44 61/65/61 48/37/48
f 60/64/60 48/37/48 61/65/61
f 43/37/43 62/64/62 61/65/61
f 63/63/63 38/33/38 27/4/27
f 38/33/38 63/63/63 32/40/32
f 62/64/62 32/40/32 63/63/63
f 62/64/62 45/41/45 32/40/32
f 62/64/62 43/37/43 45/41/45
vt 0.370353 0.571912
f 27/4/27 64/66/64 63/63/63
vt 0.295620 0.539540
f 64/66/64 10/2/10 65/67/65
f 64/66/64 11/8/11 10/2/10
f 64/66/64 27/4/27 11/8/11
f 66/66/66 13/4/13 59/63/59
f 25/15/25 65/67/65 10/2/10
f 65/67/65 25/15/25 2/2/2
f 2/2/2 66/66/66 65/67/65
f 1/1/1 66/66/66 2/2/2
f 13/4/13 66/66/66 1/1/1
f 67/63/67 58/33/58 14/4/14
f 58/33/58 67/63/67 51/40/51
f 68/64/68 51/40/51 67/63/67
f 68/64/68 54/53/54 51/40/51
f 68/64/68 47/37/47 54/53/54
f 14/4/14 69/66/69 67/63/67
f 69/66/69 7/2/7 70/67/70
f 69/66/69 8/7/8 7/2/7
f 69/66/69 14/4/14 8/7/8
f 18/15/18 70/67/70 7/2/7
f 70/67/70 18/15/18 19/2/19
f 19/2/19 71/66/71 70/67/70
f 5/5/5 71/66/71 19/2/19
f 4/4/4 71/66/71 5/5/5
f 71/66/71 4/4/4 72/63/72
f 37/33/37 72/63/72 4/4/4
f 72/63/72 37/33/37 29/40/29
f 29/40/29 73/64/73 72/63/72
f 47/37/47 68/64/68 74/65/74
f 46/46/46 29/40/29 31/42/31
f 46/46/46 73/64/73 29/40/29
f 41/37/41 73/64/73 46/46/46
f 73/64/73 41/37/41 74/65/74
f 40/36/40 74/65/74 41/37/41
f 74/65/74 40/36/40 47/37/47
vt 0.445080 0.648987
vt 0.422635 0.582081
f 15/68/15 14/69/14 75/32/75
vt 0.576719 0.624577
f 76/70/76 57/30/57 77/32/77
f 57/30/57 76/70/76 75/32/75
f 13/69/13 22/68/22 77/32/77
f 77/32/77 56/33/56 13/69/13
f 57/34/57 56/33/56 77/32/77
f 58/33/58 57/34/57 75/32/75
f 58/33/58 75/32/75 14/4/14
vt 0.591551 0.600369
vt 0.529115 0.521832
f 76/71/76 78/72/78 75/32/75
vt 0.422550 0.582077
f 78/72/78 15/73/15 75/32/75
f 78/72/78 9/6/9 15/73/15
vt 0.399708 0.556774
f 16/18/16 7/74/7 9/6/9
f 22/73/22 79/72/79 77/32/77
f 79/72/79 76/71/76 77/32/77
vt 0.517111 0.390856
f 80/75/80 76/71/76 79/72/79
f 76/71/76 80/75/80 78/72/78
vt 0.477685 0.446243
f 78/72/78 80/75/80 81/76/81
f 78/72/78 81/76/81 9/6/9
vt 0.400852 0.401530
f 9/6/9 81/76/81 82/77/82
f 82/77/82 16/18/16 9/6/9
f 80/75/80 82/77/82 81/76/81
f 16/18/16 82/77/82 17/23/17
vt 0.419168 0.196859
f 82/77/82 83/78/83 17/23/17
f 82/77/82 80/75/80 83/78/83
vt 0.495097 0.196859
f 80/75/80 84/79/84 83/78/83
f 84/79/84 80/75/80 85/78/85
vt 0.516535 0.007516
f 86/80/86 84/79/84 85/78/85
vt 0.432465 0.007516
f 86/80/86 85/78/85 87/81/87
f 84/79/84 86/80/86 83/78/83
vt 0.295488 0.196859
f 17/23/17 83/78/83 88/82/88
vt 0.366794 0.529219
f 20/83/20 89/77/89 6/6/6
f 89/77/89 20/83/20 17/23/17
f 90/78/90 89/77/89 17/23/17
f 90/78/90 17/23/17 88/82/88
vt 0.295488 0.007516
f 90/78/90 88/82/88 91/84/91
f 88/82/88 83/78/83 91/84/91
f 83/78/83 92/81/92 91/84/91
f 83/78/83 86/80/86 92/81/92
f 93/81/93 90/78/90 91/84/91
f 94/80/94 90/78/90 93/81/93
f 95/78/95 94/80/94 96/81/96
f 97/79/97 94/80/94 95/78/95
f 94/80/94 97/79/97 90/78/90
f 97/79/97 98/75/98 90/78/90
f 98/75/98 89/77/89 90/78/90
f 89/77/89 98/75/98 99/76/99
f 99/76/99 6/6/6 89/77/89
f 99/76/99 100/72/100 6/6/6
f 6/6/6 100/72/100 21/73/21
vt 0.539272 0.595690
f 21/73/21 100/72/100 36/85/36
f 100/72/100 35/71/35 36/85/36
f 101/72/101 28/73/28 33/85/33
f 35/71/35 101/72/101 33/85/33
f 35/71/35 98/75/98 101/72/101
f 98/75/98 35/71/35 100/72/100
f 98/75/98 100/72/100 99/76/99
f 98/75/98 97/79/97 95/78/95
f 101/72/101 12/6/12 28/73/28
f 101/72/101 102/76/102 12/6/12
f 101/72/101 98/75/98 102/76/102
f 98/75/98 103/77/103 102/76/102
f 103/77/103 98/75/98 95/78/95
f 12/6/12 102/76/102 103/77/103
f 95/78/95 96/81/96 104/84/104
f 103/77/103 26/83/26 12/6/12
f 26/83/26 103/77/103 24/23/24
f 103/77/103 95/78/95 24/23/24
f 24/23/24 95/78/95 105/82/105
f 105/82/105 95/78/95 104/84/104
f 85/78/85 105/82/105 104/84/104
f 87/81/87 85/78/85 104/84/104
f 85/78/85 24/23/24 105/82/105
f 106/77/106 23/18/23 24/23/24
f 85/78/85 106/77/106 24/23/24
f 80/75/80 106/77/106 85/78/85
f 2/74/2 23/18/23 3/3/3
f 23/18/23 106/77/106 3/3/3
f 107/76/107 3/3/3 106/77/106
f 106/77/106 80/75/80 107/76/107
f 80/75/80 79/72/79 107/76/107
f 3/3/3 79/72/79 22/73/22
f 107/76/107 79/72/79 3/3/3
vt 0.294137 0.542790
vt 0.370923 0.574635
vt 0.294137 0.574635
f 70/86/70 71/87/71 108/88/108
vt 0.403164 0.651515
vt 0.370923 0.728394
vt 0.370923 0.651515
f 59/89/59 60/90/60 109/91/109
vt 0.348125 0.705877
f 60/90/60 110/92/110 109/91/109
vt 0.294137 0.760239
f 60/90/60 61/93/61 110/92/110
f 65/86/65 66/87/66 111/88/111
f 64/87/64 65/86/65 111/88/111
vt 0.348125 0.597153
f 112/94/112 64/87/64 111/88/111
f 63/89/63 64/87/64 112/94/112
f 66/87/66 59/89/59 113/94/113
f 66/87/66 113/94/113 111/88/111
vt 0.294137 0.651515
f 111/88/111 113/94/113 114/95/114
f 112/94/112 111/88/111 114/95/114
f 115/91/115 112/94/112 114/95/114
vt 0.294137 0.728394
f 116/96/116 117/92/117 114/95/114
f 117/92/117 115/91/115 114/95/114
f 115/91/115 63/89/63 112/94/112
f 62/90/62 63/89/63 115/91/115
f 117/92/117 62/90/62 115/91/115
f 61/93/61 62/90/62 117/92/117
f 116/96/116 61/93/61 117/92/117
f 61/93/61 116/96/116 110/92/110
f 110/92/110 116/96/116 114/95/114
f 109/91/109 110/92/110 114/95/114
f 113/94/113 109/91/109 114/95/114
f 59/89/59 109/91/109 113/94/113
f 72/89/72 73/90/73 118/91/118
f 73/90/73 119/92/119 118/91/118
f 73/90/73 74/93/74 119/92/119
f 68/90/68 67/89/67 120/91/120
f 121/92/121 68/90/68 120/91/120
f 74/93/74 68/90/68 121/92/121
f 122/96/122 74/93/74 121/92/121
f 74/93/74 122/96/122 119/92/119
f 119/92/119 122/96/122 123/95/123
f 118/91/118 119/92/119 123/95/123
f 124/94/124 118/91/118 123/95/123
f 72/89/72 118/91/118 124/94/124
f 71/87/71 72/89/72 124/94/124
f 122/96/122 121/92/121 123/95/123
f 121/92/121 120/91/120 123/95/123
f 69/87/69 70/86/70 108/88/108
f 125/94/125 69/87/69 108/88/108
f 67/89/67 69/87/69 125/94/125
f 120/91/120 67/89/67 125/94/125
f 120/91/120 125/94/125 123/95/123
f 125/94/125 108/88/108 123/95/123
f 108/88/108 124/94/124 123/95/123
f 71/87/71 124/94/124 108/88/108
# 240 faces, 96 coords texture

# End of File
